<?xml version="1.0" encoding="UTF-8" standalone="no"?>
<!-- Generator: Adobe Illustrator 14.0.0, SVG Export Plug-In . SVG Version: 6.00 Build 43363)  -->

<svg
   xmlns:dc="http://purl.org/dc/elements/1.1/"
   xmlns:cc="http://creativecommons.org/ns#"
   xmlns:rdf="http://www.w3.org/1999/02/22-rdf-syntax-ns#"
   xmlns:svg="http://www.w3.org/2000/svg"
   xmlns="http://www.w3.org/2000/svg"
   xmlns:xlink="http://www.w3.org/1999/xlink"
   xmlns:sodipodi="http://sodipodi.sourceforge.net/DTD/sodipodi-0.dtd"
   xmlns:inkscape="http://www.inkscape.org/namespaces/inkscape"
   version="1.1"
   id="Layer_1"
   x="0px"
   y="0px"
   width="248.588"
   height="423.35501"
   viewBox="0 0 248.58799 423.35502"
   enable-background="new 0 0 3543.31 7086.609"
   xml:space="preserve"
   inkscape:version="0.91 r13725"
   sodipodi:docname="diapason.svg"><metadata
     id="metadata17"><rdf:RDF><cc:Work
         rdf:about=""><dc:format>image/svg+xml</dc:format><dc:type
           rdf:resource="http://purl.org/dc/dcmitype/StillImage" /><dc:title></dc:title></cc:Work></rdf:RDF></metadata><defs
     id="defs15"><defs
       id="defs5"><rect
         height="7086.6099"
         width="3543.3101"
         y="0"
         id="SVGID_1_"
         x="0" /></defs><clipPath
       id="SVGID_2_"><use
         id="use9"
         overflow="visible"
         xlink:href="#SVGID_1_"
         style="overflow:visible"
         x="0"
         y="0"
         width="100%"
         height="100%" /></clipPath></defs><sodipodi:namedview
     pagecolor="#ffffff"
     bordercolor="#666666"
     borderopacity="1"
     objecttolerance="10"
     gridtolerance="10"
     guidetolerance="10"
     inkscape:pageopacity="0"
     inkscape:pageshadow="2"
     inkscape:window-width="1366"
     inkscape:window-height="719"
     id="namedview13"
     showgrid="false"
     fit-margin-top="0"
     fit-margin-left="0"
     fit-margin-right="0"
     fit-margin-bottom="0"
     inkscape:zoom="0.53283595"
     inkscape:cx="237.5444"
     inkscape:cy="155.36105"
     inkscape:window-x="0"
     inkscape:window-y="0"
     inkscape:window-maximized="1"
     inkscape:current-layer="Layer_1" /><path
     style="fill:none;stroke:#000000;stroke-miterlimit:10"
     inkscape:connector-curvature="0"
     id="path11"
     d="m 2090.95,3575.463 123.794,0 0,-22.949 -112.319,0 0,-25.377 27.362,0 c 11.916,-3.972 14.785,-18.536 14.785,-18.536 l 0,-355.493 -25.156,0 0,330.779 c 0,0 -3.53,12.577 -15.005,19.859 l -13.461,-0.01 -13.461,0.01 c -11.474,-7.282 -15.005,-19.859 -15.005,-19.859 l 0,-330.779 -25.156,0 0,355.493 c 0,0 2.869,14.564 14.785,18.536 l 27.362,0 0,25.377 -112.319,0 0,22.949 123.794,0 z"
     stroke-miterlimit="10"
     clip-path="url(#SVGID_2_)"
     transform="translate(-1966.656,-3152.608)" /></svg>