<?xml version="1.0" encoding="utf-8"?>
<!-- Generator: Adobe Illustrator 18.1.1, SVG Export Plug-In . SVG Version: 6.00 Build 0)  -->
<svg version="1.1" xmlns="http://www.w3.org/2000/svg" xmlns:xlink="http://www.w3.org/1999/xlink" x="0px" y="0px"
	 viewBox="-1715 3503.1 112.5 81.5" enable-background="new -1715 3503.1 112.5 81.5" xml:space="preserve">
<g id="pcb">
	<g id="masque">
		<g>
			<g transform="translate(51.1053,30.3304)">
				<g id="copper0_25_">
					<circle id="connector0pad_16_" stroke="#000000" stroke-width="1.44" cx="-1711.2" cy="3528.5" r="1.5"/>
					<path stroke="#000000" stroke-width="0.72" d="M-1711.2,3524.7c1,0,1.9,0.8,1.9,1.9v3.7c0,1-0.8,1.9-1.9,1.9l0,0
						c-1,0-1.9-0.8-1.9-1.9v-3.7C-1713.1,3525.6-1712.2,3524.7-1711.2,3524.7C-1711.2,3524.7-1711.2,3524.7-1711.2,3524.7z
						 M-1712.3,3528.5c0,0.6,0.5,1.2,1.2,1.2s1.2-0.5,1.2-1.2l0,0c0-0.6-0.5-1.2-1.2-1.2S-1712.3,3527.9-1712.3,3528.5z"/>
					<circle id="connector1pad_16_" stroke="#000000" stroke-width="1.44" cx="-1704" cy="3528.5" r="1.5"/>
					<path stroke="#000000" stroke-width="0.72" d="M-1704,3524.7c1,0,1.9,0.8,1.9,1.9v3.7c0,1-0.8,1.9-1.9,1.9l0,0
						c-1,0-1.9-0.8-1.9-1.9v-3.7C-1705.9,3525.6-1705,3524.7-1704,3524.7L-1704,3524.7z M-1705.1,3528.5c0,0.6,0.5,1.2,1.2,1.2
						c0.6,0,1.2-0.5,1.2-1.2l0,0c0-0.6-0.5-1.2-1.2-1.2C-1704.6,3527.3-1705.1,3527.9-1705.1,3528.5z"/>
					<circle id="connector6pad_2_" stroke="#000000" stroke-width="1.44" cx="-1704" cy="3506.9" r="1.5"/>
					<path stroke="#000000" stroke-width="0.72" d="M-1704,3503.1c1,0,1.9,0.8,1.9,1.9v3.7c0,1-0.8,1.9-1.9,1.9l0,0
						c-1,0-1.9-0.8-1.9-1.9v-3.7C-1705.9,3504-1705,3503.1-1704,3503.1C-1704,3503.1-1704,3503.1-1704,3503.1z M-1705.1,3506.9
						c0,0.6,0.5,1.2,1.2,1.2c0.6,0,1.2-0.5,1.2-1.2s-0.5-1.2-1.2-1.2C-1704.6,3505.7-1705.1,3506.3-1705.1,3506.9z"/>
					<circle id="connector7pad_2_" stroke="#000000" stroke-width="1.44" cx="-1711.2" cy="3506.9" r="1.5"/>
					<path stroke="#000000" stroke-width="0.72" d="M-1711.2,3503.1c1,0,1.9,0.8,1.9,1.9v3.7c0,1-0.8,1.9-1.9,1.9l0,0
						c-1,0-1.9-0.8-1.9-1.9v-3.7C-1713.1,3504-1712.2,3503.1-1711.2,3503.1C-1711.2,3503.1-1711.2,3503.1-1711.2,3503.1
						S-1711.2,3503.1-1711.2,3503.1z M-1712.3,3506.9c0,0.6,0.5,1.2,1.2,1.2s1.2-0.5,1.2-1.2s-0.5-1.2-1.2-1.2
						S-1712.3,3506.3-1712.3,3506.9z"/>
					<circle id="connector2pad_5_" stroke="#000000" stroke-width="1.44" cx="-1696.8" cy="3528.5" r="1.5"/>
					<path stroke="#000000" stroke-width="0.72" d="M-1696.8,3524.7c1,0,1.9,0.8,1.9,1.9v3.7c0,1-0.8,1.9-1.9,1.9l0,0
						c-1,0-1.9-0.8-1.9-1.9v-3.7C-1698.7,3525.6-1697.8,3524.7-1696.8,3524.7L-1696.8,3524.7z M-1697.9,3528.5
						c0,0.6,0.5,1.2,1.2,1.2s1.2-0.5,1.2-1.2s-0.5-1.2-1.2-1.2S-1697.9,3527.9-1697.9,3528.5z"/>
					<circle id="connector3pad_2_" stroke="#000000" stroke-width="1.44" cx="-1689.6" cy="3528.5" r="1.5"/>
					<path stroke="#000000" stroke-width="0.72" d="M-1689.6,3524.7c1,0,1.9,0.8,1.9,1.9v3.7c0,1-0.8,1.9-1.9,1.9l0,0
						c-1,0-1.9-0.8-1.9-1.9v-3.7C-1691.5,3525.6-1690.6,3524.7-1689.6,3524.7L-1689.6,3524.7z M-1690.7,3528.5
						c0,0.6,0.5,1.2,1.2,1.2s1.2-0.5,1.2-1.2s-0.5-1.2-1.2-1.2S-1690.7,3527.9-1690.7,3528.5z"/>
					<circle id="connector5pad_2_" stroke="#000000" stroke-width="1.44" cx="-1696.8" cy="3506.9" r="1.5"/>
					<path stroke="#000000" stroke-width="0.72" d="M-1696.8,3503.1c1,0,1.9,0.8,1.9,1.9v3.7c0,1-0.8,1.9-1.9,1.9l0,0
						c-1,0-1.9-0.8-1.9-1.9v-3.7C-1698.7,3504-1697.8,3503.1-1696.8,3503.1C-1696.8,3503.1-1696.8,3503.1-1696.8,3503.1z
						 M-1697.9,3506.9c0,0.6,0.5,1.2,1.2,1.2s1.2-0.5,1.2-1.2s-0.5-1.2-1.2-1.2S-1697.9,3506.3-1697.9,3506.9z"/>
					<circle id="connector4pad_2_" stroke="#000000" stroke-width="1.44" cx="-1689.6" cy="3506.9" r="1.5"/>
					<path stroke="#000000" stroke-width="0.72" d="M-1689.6,3503.1c1,0,1.9,0.8,1.9,1.9v3.7c0,1-0.8,1.9-1.9,1.9l0,0
						c-1,0-1.9-0.8-1.9-1.9v-3.7C-1691.5,3504-1690.6,3503.1-1689.6,3503.1C-1689.6,3503.1-1689.6,3503.1-1689.6,3503.1z
						 M-1690.7,3506.9c0,0.6,0.5,1.2,1.2,1.2s1.2-0.5,1.2-1.2s-0.5-1.2-1.2-1.2S-1690.7,3506.3-1690.7,3506.9z"/>
				</g>
			</g>
		</g>
		<g>
			<g transform="translate(30.2253,36.7744)">
				<g transform="matrix(0,-1,1,0,0,0)">
					<g id="copper0_24_">
						<g id="copper1_22_">
							<circle id="connector0pin_27_" stroke="#000000" stroke-width="2.16" cx="-3500.4" cy="-1711.9" r="2"/>
							<circle id="connector1pin_9_" stroke="#000000" stroke-width="2.16" cx="-3471.6" cy="-1711.9" r="2"/>
						</g>
					</g>
				</g>
			</g>
		</g>
		<g>
			<g transform="translate(87.8253,36.7744)">
				<g transform="matrix(0,-1,1,0,0,0)">
					<g id="copper0_23_">
						<g id="copper1_21_">
							<circle id="connector0pin_26_" stroke="#000000" stroke-width="2.16" cx="-3500.4" cy="-1711.9" r="2"/>
							<circle id="connector1pin_8_" stroke="#000000" stroke-width="2.16" cx="-3471.6" cy="-1711.9" r="2"/>
						</g>
					</g>
				</g>
			</g>
		</g>
		<g>
			<g transform="translate(79.2213,7.97438)">
				<g transform="matrix(-1,0,0,-1,0,0)">
					<g id="copper0_22_">
						<g id="copper1_20_">
							<circle id="connector0pin_25_" stroke="#000000" stroke-width="2.16" cx="1717.7" cy="-3500.4" r="2"/>
							<circle id="connector1pin_7_" stroke="#000000" stroke-width="2.16" cx="1739.3" cy="-3500.4" r="2"/>
						</g>
					</g>
				</g>
			</g>
		</g>
		<g>
			<g transform="translate(75.2219,79.575)">
				<g transform="matrix(-1,0,0,-1,0,0)">
					<g id="copper0_21_">
						<circle id="connector1pad_15_" stroke="#000000" stroke-width="2.0679" cx="1720.9" cy="-3493.6" r="1.7"/>
						<circle id="connector0pad_15_" stroke="#000000" stroke-width="2.0679" cx="1728.1" cy="-3493.6" r="1.7"/>
						<path stroke="#000000" stroke-width="0.72" d="M1725.8-3496h4.7v4.7h-4.7V-3496z M1727.1-3493.6c0,0.5,0.4,1,1,1s1-0.4,1-1
							s-0.4-1-1-1S1727.1-3494.2,1727.1-3493.6z"/>
					</g>
				</g>
			</g>
		</g>
		<g>
			<g transform="translate(111.222,43.575)">
				<g transform="matrix(-1,0,0,-1,0,0)">
					<g id="copper0_20_">
						<circle id="connector1pad_14_" stroke="#000000" stroke-width="2.0679" cx="1720.9" cy="-3493.6" r="1.7"/>
						<circle id="connector0pad_14_" stroke="#000000" stroke-width="2.0679" cx="1728.1" cy="-3493.6" r="1.7"/>
						<path stroke="#000000" stroke-width="0.72" d="M1725.8-3496h4.7v4.7h-4.7V-3496z M1727.1-3493.6c0,0.5,0.4,1,1,1s1-0.4,1-1
							s-0.4-1-1-1S1727.1-3494.2,1727.1-3493.6z"/>
					</g>
				</g>
			</g>
		</g>
		<g>
			<g transform="translate(21.2219,42.5738)">
				<g transform="matrix(0,1,-1,0,0,0)">
					<g id="copper0_6_">
						<circle id="connector1pad_13_" stroke="#000000" stroke-width="2.0679" cx="3509" cy="1724.5" r="1.7"/>
						<circle id="connector0pad_13_" stroke="#000000" stroke-width="2.0679" cx="3516.2" cy="1724.5" r="1.7"/>
						<path stroke="#000000" stroke-width="0.72" d="M3513.9,1722.2h4.7v4.7h-4.7V1722.2z M3515.3,1724.5c0,0.5,0.4,1,1,1
							c0.5,0,1-0.4,1-1c0-0.5-0.4-1-1-1C3515.7,1723.5,3515.3,1724,3515.3,1724.5z"/>
					</g>
				</g>
			</g>
		</g>
		<g>
			<g transform="translate(95.9613,75.1144)">
				<g transform="matrix(-1,0,0,-1,0,0)">
					<g id="copper0_8_">
						<g transform="matrix(-1, 0, 0, 1, 10.08, 0)">
							<g>
								<g>
									<g>
										<g id="copper0_7_">
											<rect id="square_3_" x="-1712" y="-3496" stroke="#000000" stroke-width="2.16" width="4.2" height="-4.2"/>
											<circle id="connector0pin_24_" stroke="#000000" stroke-width="2.16" cx="-1710" cy="-3498.1" r="2.1"/>
										</g>
									</g>
									<g>
										<rect id="square_2_" x="-1712" y="-3496" stroke="#000000" stroke-width="2.16" width="4.2" height="-4.2"/>
										<circle id="connector0pin_23_" stroke="#000000" stroke-width="2.16" cx="-1710" cy="-3498.1" r="2.1"/>
									</g>
								</g>
							</g>
						</g>
					</g>
				</g>
			</g>
		</g>
		<g>
			<g transform="translate(44.704,52.6571)">
				<g id="copper0_9_">
					<circle id="connector0pin_22_" stroke="#000000" stroke-width="1.5704" cx="-1712" cy="3506.2" r="1"/>
				</g>
			</g>
		</g>
		<g>
			<g transform="translate(87.904,45.4571)">
				<g id="copper0_10_">
					<circle id="connector0pin_21_" stroke="#000000" stroke-width="1.5704" cx="-1712" cy="3506.2" r="1"/>
				</g>
			</g>
		</g>
		<g>
			<g transform="translate(102.304,45.4571)">
				<g id="copper0_11_">
					<circle id="connector0pin_20_" stroke="#000000" stroke-width="1.5704" cx="-1712" cy="3506.2" r="1"/>
				</g>
			</g>
		</g>
		<g>
			<g transform="translate(41.3853,58.6263)">
				<g transform="matrix(0,1,-1,0,0,0)">
					<g id="copper0_12_">
						<circle id="connector0pad_12_" stroke="#000000" stroke-width="2.232" cx="3507.4" cy="1723.1" r="1.9"/>
						<circle id="connector1pad_12_" stroke="#000000" stroke-width="2.232" cx="3511" cy="1717.7" r="1.9"/>
						<circle id="connector2pad_4_" stroke="#000000" stroke-width="2.232" cx="3514.6" cy="1723.1" r="1.9"/>
					</g>
				</g>
			</g>
		</g>
		<g>
			<g transform="translate(42.1089,52.0208)">
				<g transform="matrix(-1,0,0,-1,0,0)">
					<g id="copper0_13_">
						<g id="copper1_19_">
							<circle id="connector1pad_11_" stroke="#000000" stroke-width="1.8538" cx="1723.8" cy="-3492.5" r="1.7"/>
							<rect x="1722.1" y="-3494.2" stroke="#000000" stroke-width="1.8538" width="3.4" height="3.4"/>
							<circle id="connector0pad_11_" stroke="#000000" stroke-width="1.8538" cx="1723.8" cy="-3499.6" r="1.7"/>
						</g>
					</g>
				</g>
			</g>
		</g>
		<g>
			<g transform="translate(30.304,74.2571)">
				<g id="copper0_14_">
					<circle id="connector0pin_19_" stroke="#000000" stroke-width="1.5704" cx="-1712" cy="3506.2" r="1"/>
				</g>
			</g>
		</g>
		<g>
			<g transform="translate(15.904,45.4571)">
				<g id="copper0_15_">
					<circle id="connector0pin_18_" stroke="#000000" stroke-width="1.5704" cx="-1712" cy="3506.2" r="1"/>
				</g>
			</g>
		</g>
		<g>
			<g transform="translate(15.904,59.8571)">
				<g id="copper0_16_">
					<circle id="connector0pin_17_" stroke="#000000" stroke-width="1.5704" cx="-1712" cy="3506.2" r="1"/>
				</g>
			</g>
		</g>
		<g>
			<g transform="translate(23.104,59.8571)">
				<g id="copper0_17_">
					<circle id="connector0pin_16_" stroke="#000000" stroke-width="1.5704" cx="-1712" cy="3506.2" r="1"/>
				</g>
			</g>
		</g>
		<g>
			<g transform="translate(23.104,45.4571)">
				<g id="copper0_18_">
					<circle id="connector0pin_15_" stroke="#000000" stroke-width="1.5704" cx="-1712" cy="3506.2" r="1"/>
				</g>
			</g>
		</g>
		<g>
			<g transform="translate(15.904,2.25706)">
				<g id="copper0_19_">
					<circle id="connector0pin_14_" stroke="#000000" stroke-width="1.5704" cx="-1712" cy="3506.2" r="1"/>
				</g>
			</g>
		</g>
		<circle cx="-1704.4" cy="3508.4" r="1.5"/>
	</g>
	<g id="Trace" xmlns:svg="http://www.w3.org/2000/svg">
		<g>
			<path d="M-1657.1,3512.2v20.5c0.2,0.3,0.5,0.6,0.6,0.9c0.2-0.3,0.4-0.6,0.6-0.9v-9.9c0-1.6,1.3-3,3-3h11.4v-7.6
				c-1.1-0.9-1.8-2.3-1.8-3.8c0-1.1,0.3-2.1,0.9-2.9h-13.8c0.6,0.8,0.9,1.8,0.9,2.9C-1655.3,3509.9-1656,3511.3-1657.1,3512.2z"/>
			<path d="M-1656.5,3555.2c0.5-1,1.3-1.7,2.3-2.1l3.6-10.8c-0.7,0.5-1.5,0.8-2.3,0.8c-1.6,0-3-0.9-3.6-2.3c-0.6,1.3-2,2.3-3.6,2.3
				c-2.2,0-4-1.8-4-4v-3.7c0-1,0.4-1.9,1-2.6v-20.5c-0.3-0.2-0.5-0.5-0.8-0.8h-14.1c-0.9,1.1-2.3,1.8-3.8,1.8s-2.9-0.7-3.8-1.8h-8.7
				c-0.6,0.4-1.2,0.6-1.9,0.6c-2,0-3.5-1.6-3.5-3.5c0-1.2,0.6-2.2,1.5-2.9h-14.4v76.6h27.8c-0.3-0.5-0.5-1.1-0.5-1.8
				c0-0.7,0.2-1.3,0.6-1.9v-1.6c-1.1-0.9-1.8-2.3-1.8-3.7c0-1.4,0.6-2.7,1.6-3.6c-0.2-0.2-0.4-0.4-0.6-0.6h-1.6
				c-0.6,0.4-1.2,0.6-1.9,0.6c-2,0-3.5-1.6-3.5-3.5s1.6-3.5,3.5-3.5c0.7,0,1.3,0.2,1.9,0.6h1.6c0.9-1.1,2.3-1.8,3.7-1.8
				c2.3,0,4.1,1.6,4.7,3.7c0.2,0,0.5-0.1,0.7-0.1c2.6,0,4.8,2.1,4.8,4.8c0,1.2-0.4,2.3-1.2,3.2l0.8,4.6h14.6v-1.9v-2.2l0,0l0-0.2
				v-0.2l0,0v-2.2v-2.1h2.1h1.2l2.1-4.2c-0.3,0.1-0.6,0.1-1,0.1c-1.6,0-3-0.9-3.6-2.3V3555.2z M-1688.9,3548.1
				c0.7,0,1.3,0.2,1.9,0.6h0.9v-1.8v-4.5v-2.1h0.6c-0.6-0.8-1-1.8-1-2.9c0-2.7,2.2-4.8,4.8-4.8s4.8,2.2,4.8,4.8c0,1.1-0.4,2.1-1,2.9
				h0.6v2.1v4.5v2.1h-0.9c0.6,0.7,0.9,1.7,0.9,2.7c0,2.4-2,4.4-4.4,4.4c-1.2,0-2.4-0.5-3.2-1.4h-2.1c-0.6,0.4-1.2,0.6-1.9,0.6
				c-2,0-3.5-1.6-3.5-3.5S-1690.8,3548.1-1688.9,3548.1z M-1698,3548.6c0.6-0.4,1.2-0.6,1.9-0.6c2,0,3.5,1.6,3.5,3.5
				s-1.6,3.5-3.5,3.5c-0.7,0-1.3-0.2-1.9-0.6h-0.8v1.9v4.7v1.9h0.8c0.6-0.4,1.2-0.6,1.9-0.6c2,0,3.5,1.6,3.5,3.5s-1.6,3.5-3.5,3.5
				c-0.7,0-1.3-0.2-1.9-0.6h-5.3c-1.6,0-3-1.3-3-3v-2.7h-1.5v-2.1v-4.7v-2.1h0.9c-0.6-0.8-0.9-1.7-0.9-2.7c0-2.5,2-4.5,4.5-4.5
				c1.3,0,2.5,0.6,3.3,1.5H-1698z"/>
			<path d="M-1634.5,3539.1c0,2.2-1.8,4-4,4c-1.6,0-3-0.9-3.6-2.3c-0.5,1-1.3,1.7-2.3,2.1l-3.6,10.8c0.7-0.5,1.5-0.8,2.3-0.8
				c1.6,0,3,0.9,3.6,2.3c0.6-1.3,2-2.3,3.6-2.3c2.2,0,4,1.8,4,4v3.7c0,2.2-1.8,4-4,4c-1.6,0-3-0.9-3.6-2.3c-0.6,1.2-1.8,2.1-3.2,2.2
				l-2.2,4.5c0.6-0.2,1.2-0.4,1.8-0.4c1.3,0,2.5,0.6,3.3,1.5h13.4v-1.9h0.6h8.8h0.6v2.1v5.6v2.1h-2.1h-5.6h-2.1v-1.9h-13.4
				c-0.1,0.1-0.2,0.2-0.3,0.3v3.9c0,0.7-0.2,1.3-0.6,1.8h38.4v-76.6h-15.3c0.6,0.8,0.9,1.8,0.9,2.9c0,2.7-2.2,4.8-4.8,4.8
				c-1.5,0-2.9-0.7-3.8-1.8h-6.9c-0.2,0.3-0.5,0.5-0.8,0.8v10.6c0,1.6-1.3,3-3,3h-11.4v6.9c0.2,0.3,0.4,0.6,0.6,0.9
				c0.2-0.3,0.4-0.6,0.6-0.9v-2.7c0-1.6,1.3-3,3-3h14.4c1.6,0,3,1.3,3,3v4.8c0.8-1.5,2.4-2.5,4.2-2.5c1,0,1.9,0.3,2.7,0.9v-0.5h2.1
				h4.7h2.1v0.9l0,8l-2.1,0h-4.7h-1.9v2.7c0,1.6-1.3,3-3,3h-7.2c-1.6,0-3-1.3-3-3"/>
		</g>
		<path fill="#FFFFFF" stroke="#000000" stroke-miterlimit="10" d="M-1698.5,3542.5c-0.1,0-0.2,0-0.3-0.1l-7.5-4.9
			c-0.1-0.1-0.2-0.2-0.2-0.3c0-0.1,0-0.3,0.1-0.4l7.2-8.9c0.1-0.1,0.2-0.2,0.4-0.2c0.1,0,0.3,0,0.4,0.1l7.2,7.2
			c0.1,0.1,0.1,0.2,0.1,0.4c0,0.1-0.1,0.3-0.2,0.4l-6.9,6.5C-1698.2,3542.5-1698.3,3542.5-1698.5,3542.5z M-1705.2,3537l6.7,4.4
			l6.2-5.9l-6.4-6.5L-1705.2,3537z"/>
		<path fill="#FFFFFF" stroke="#000000" stroke-miterlimit="10" d="M-1707.3,3527.4c-0.2,0-0.3-0.1-0.4-0.2c-0.1-0.1-0.1-0.3,0-0.5
			l5.1-10.5c0.1-0.2,0.2-0.3,0.5-0.3c0.2,0,0.4,0.1,0.4,0.3l3.1,7l5.8-5.7c0.2-0.2,0.5-0.2,0.7,0c0.2,0.2,0.2,0.5,0,0.7l-6.3,6.2
			c-0.1,0.1-0.3,0.2-0.4,0.1c-0.2,0-0.3-0.1-0.4-0.3l-3-6.7l-4.3,8.8l14-1.1c0.3,0,0.5,0.2,0.5,0.5c0,0.3-0.2,0.5-0.5,0.5
			L-1707.3,3527.4C-1707.3,3527.4-1707.3,3527.4-1707.3,3527.4z"/>
		<path fill="#FFFFFF" d="M-1698.8,3527.8c0.1,0,0.3,0.1,0.3,0.1l7.2,7.2c0.1,0.1,0.1,0.2,0.1,0.4c0,0.1-0.1,0.3-0.2,0.4l-6.9,6.5
			c-0.1,0.1-0.2,0.1-0.3,0.1c-0.1,0-0.2,0-0.3-0.1l-7.5-4.9c-0.1-0.1-0.2-0.2-0.2-0.3c0-0.1,0-0.3,0.1-0.4l7.2-8.9
			C-1699.1,3527.9-1698.9,3527.8-1698.8,3527.8C-1698.8,3527.8-1698.8,3527.8-1698.8,3527.8 M-1698.5,3541.4l6.2-5.9l-6.4-6.5
			l-6.5,8L-1698.5,3541.4 M-1698.8,3526.8L-1698.8,3526.8l-0.1,0c-0.4,0-0.8,0.2-1.1,0.6l-7.2,8.9c-0.3,0.3-0.4,0.8-0.3,1.2
			c0.1,0.4,0.3,0.8,0.7,1l7.5,4.9c0.2,0.2,0.5,0.2,0.8,0.2c0.4,0,0.8-0.1,1-0.4l6.9-6.5c0.3-0.3,0.5-0.7,0.5-1.1
			c0-0.4-0.2-0.8-0.4-1.1l-7.2-7.3C-1698,3527-1698.4,3526.8-1698.8,3526.8L-1698.8,3526.8z M-1703.8,3536.8l5.1-6.3l4.9,5l-4.9,4.6
			L-1703.8,3536.8L-1703.8,3536.8z"/>
		<path fill="#FFFFFF" d="M-1702.3,3515.9C-1702.2,3515.9-1702.2,3515.9-1702.3,3515.9c0.3,0,0.4,0.1,0.5,0.3l3.1,7l5.8-5.7
			c0.1-0.1,0.2-0.1,0.4-0.1c0.1,0,0.3,0,0.4,0.1c0.2,0.2,0.2,0.5,0,0.7l-6.3,6.2c-0.1,0.1-0.2,0.1-0.4,0.1c0,0-0.1,0-0.1,0
			c-0.2,0-0.3-0.1-0.4-0.3l-3-6.7l-4.3,8.8l14-1.1c0,0,0,0,0,0c0.3,0,0.5,0.2,0.5,0.5c0,0.3-0.2,0.5-0.5,0.5l-14.9,1.1c0,0,0,0,0,0
			c-0.2,0-0.3-0.1-0.4-0.2c-0.1-0.1-0.1-0.3,0-0.5l5.1-10.5C-1702.6,3516-1702.5,3515.9-1702.3,3515.9 M-1702.3,3514.9
			c-0.6,0-1,0.3-1.3,0.8l-5.1,10.5c-0.2,0.5-0.2,1.1,0.1,1.5c0.3,0.4,0.7,0.7,1.2,0.7h0l0.1,0l14.9-1.1c0.8-0.1,1.4-0.8,1.4-1.6
			c-0.1-0.8-0.7-1.4-1.5-1.4h0l-0.1,0l-4.7,0.4l5.9-5.8c0.3-0.3,0.4-0.7,0.4-1.1c0-0.4-0.2-0.8-0.4-1.1c-0.3-0.3-0.7-0.4-1.1-0.4
			c-0.4,0-0.8,0.2-1.1,0.4l-4.8,4.7l-2.5-5.7c-0.2-0.5-0.7-0.9-1.3-0.9C-1702.2,3514.9-1702.2,3514.9-1702.3,3514.9L-1702.3,3514.9z
			 M-1704.8,3525.2l2.6-5.3l2.1,4.7c0,0.1,0.1,0.1,0.1,0.2L-1704.8,3525.2L-1704.8,3525.2z"/>
		<g>
			<g id="board_1_">
				
					<rect id="boardoutline_1_" x="-1714.7" y="3503.4" fill="none" stroke="#000000" stroke-width="0.5" width="112" height="80.9"/>
			</g>
		</g>
		<circle id="connector0pad_27_" fill="none" stroke="#000000" stroke-width="0.72" cx="-1660.1" cy="3558.8" r="1.5"/>
		<path d="M-1660.1,3555.1c1,0,1.9,0.8,1.9,1.9v3.7c0,1-0.8,1.9-1.9,1.9l0,0c-1,0-1.9-0.8-1.9-1.9v-3.7
			C-1662,3555.9-1661.1,3555.1-1660.1,3555.1C-1660.1,3555.1-1660.1,3555.1-1660.1,3555.1z M-1661.2,3558.8c0,0.6,0.5,1.2,1.2,1.2
			s1.2-0.5,1.2-1.2l0,0c0-0.6-0.5-1.2-1.2-1.2S-1661.2,3558.2-1661.2,3558.8z"/>
		<circle id="connector1pad_27_" fill="none" stroke="#000000" stroke-width="0.72" cx="-1652.9" cy="3558.8" r="1.5"/>
		<path d="M-1652.9,3555.1c1,0,1.9,0.8,1.9,1.9v3.7c0,1-0.8,1.9-1.9,1.9l0,0c-1,0-1.9-0.8-1.9-1.9v-3.7
			C-1654.8,3555.9-1653.9,3555.1-1652.9,3555.1L-1652.9,3555.1z M-1654,3558.8c0,0.6,0.5,1.2,1.2,1.2s1.2-0.5,1.2-1.2l0,0
			c0-0.6-0.5-1.2-1.2-1.2S-1654,3558.2-1654,3558.8z"/>
		<circle id="connector6pad_4_" fill="none" stroke="#000000" stroke-width="0.72" cx="-1652.9" cy="3537.2" r="1.5"/>
		<path d="M-1652.9,3533.5c1,0,1.9,0.8,1.9,1.9v3.7c0,1-0.8,1.9-1.9,1.9l0,0c-1,0-1.9-0.8-1.9-1.9v-3.7
			C-1654.8,3534.3-1653.9,3533.5-1652.9,3533.5C-1652.9,3533.5-1652.9,3533.5-1652.9,3533.5z M-1654,3537.2c0,0.6,0.5,1.2,1.2,1.2
			s1.2-0.5,1.2-1.2s-0.5-1.2-1.2-1.2S-1654,3536.6-1654,3537.2z"/>
		<circle id="connector7pad_4_" fill="none" stroke="#000000" stroke-width="0.72" cx="-1660.1" cy="3537.2" r="1.5"/>
		<path d="M-1660.1,3533.5c1,0,1.9,0.8,1.9,1.9v3.7c0,1-0.8,1.9-1.9,1.9l0,0c-1,0-1.9-0.8-1.9-1.9v-3.7
			C-1662,3534.3-1661.1,3533.5-1660.1,3533.5C-1660.1,3533.5-1660.1,3533.5-1660.1,3533.5S-1660.1,3533.5-1660.1,3533.5z
			 M-1661.2,3537.2c0,0.6,0.5,1.2,1.2,1.2s1.2-0.5,1.2-1.2s-0.5-1.2-1.2-1.2S-1661.2,3536.6-1661.2,3537.2z"/>
		<circle id="connector2pad_9_" fill="none" stroke="#000000" stroke-width="0.72" cx="-1645.7" cy="3558.8" r="1.5"/>
		<path d="M-1645.7,3555.1c1,0,1.9,0.8,1.9,1.9v3.7c0,1-0.8,1.9-1.9,1.9l0,0c-1,0-1.9-0.8-1.9-1.9v-3.7
			C-1647.6,3555.9-1646.7,3555.1-1645.7,3555.1L-1645.7,3555.1z M-1646.8,3558.8c0,0.6,0.5,1.2,1.2,1.2s1.2-0.5,1.2-1.2
			s-0.5-1.2-1.2-1.2S-1646.8,3558.2-1646.8,3558.8z"/>
		<circle id="connector3pad_4_" fill="none" stroke="#000000" stroke-width="0.72" cx="-1638.5" cy="3558.8" r="1.5"/>
		<path d="M-1638.5,3555.1c1,0,1.9,0.8,1.9,1.9v3.7c0,1-0.8,1.9-1.9,1.9l0,0c-1,0-1.9-0.8-1.9-1.9v-3.7
			C-1640.4,3555.9-1639.5,3555.1-1638.5,3555.1L-1638.5,3555.1z M-1639.6,3558.8c0,0.6,0.5,1.2,1.2,1.2s1.2-0.5,1.2-1.2
			s-0.5-1.2-1.2-1.2S-1639.6,3558.2-1639.6,3558.8z"/>
		<circle id="connector5pad_4_" fill="none" stroke="#000000" stroke-width="0.72" cx="-1645.7" cy="3537.2" r="1.5"/>
		<path d="M-1645.7,3533.5c1,0,1.9,0.8,1.9,1.9v3.7c0,1-0.8,1.9-1.9,1.9l0,0c-1,0-1.9-0.8-1.9-1.9v-3.7
			C-1647.6,3534.3-1646.7,3533.5-1645.7,3533.5C-1645.7,3533.5-1645.7,3533.5-1645.7,3533.5z M-1646.8,3537.2c0,0.6,0.5,1.2,1.2,1.2
			s1.2-0.5,1.2-1.2s-0.5-1.2-1.2-1.2S-1646.8,3536.6-1646.8,3537.2z"/>
		<circle id="connector4pad_4_" fill="none" stroke="#000000" stroke-width="0.72" cx="-1638.5" cy="3537.2" r="1.5"/>
		<path d="M-1638.5,3533.5c1,0,1.9,0.8,1.9,1.9v3.7c0,1-0.8,1.9-1.9,1.9l0,0c-1,0-1.9-0.8-1.9-1.9v-3.7
			C-1640.4,3534.3-1639.5,3533.5-1638.5,3533.5C-1638.5,3533.5-1638.5,3533.5-1638.5,3533.5z M-1639.6,3537.2c0,0.6,0.5,1.2,1.2,1.2
			s1.2-0.5,1.2-1.2s-0.5-1.2-1.2-1.2S-1639.6,3536.6-1639.6,3537.2z"/>
		<circle id="connector0pad_26_" fill="none" stroke="#000000" stroke-width="0.72" cx="-1660.1" cy="3558.8" r="1.5"/>
		<circle id="connector1pad_26_" fill="none" stroke="#000000" stroke-width="0.72" cx="-1652.9" cy="3558.8" r="1.5"/>
		<path d="M-1652.9,3555.1c1,0,1.9,0.8,1.9,1.9v3.7c0,1-0.8,1.9-1.9,1.9l0,0c-1,0-1.9-0.8-1.9-1.9v-3.7
			C-1654.8,3555.9-1653.9,3555.1-1652.9,3555.1L-1652.9,3555.1z M-1654,3558.8c0,0.6,0.5,1.2,1.2,1.2s1.2-0.5,1.2-1.2l0,0
			c0-0.6-0.5-1.2-1.2-1.2S-1654,3558.2-1654,3558.8z"/>
		<circle id="connector6pad_3_" fill="none" stroke="#000000" stroke-width="0.72" cx="-1652.9" cy="3537.2" r="1.5"/>
		<path d="M-1652.9,3533.5c1,0,1.9,0.8,1.9,1.9v3.7c0,1-0.8,1.9-1.9,1.9l0,0c-1,0-1.9-0.8-1.9-1.9v-3.7
			C-1654.8,3534.3-1653.9,3533.5-1652.9,3533.5C-1652.9,3533.5-1652.9,3533.5-1652.9,3533.5z M-1654,3537.2c0,0.6,0.5,1.2,1.2,1.2
			s1.2-0.5,1.2-1.2s-0.5-1.2-1.2-1.2S-1654,3536.6-1654,3537.2z"/>
		<circle id="connector7pad_3_" fill="none" stroke="#000000" stroke-width="0.72" cx="-1660.1" cy="3537.2" r="1.5"/>
		<path d="M-1660.1,3533.5c1,0,1.9,0.8,1.9,1.9v3.7c0,1-0.8,1.9-1.9,1.9l0,0c-1,0-1.9-0.8-1.9-1.9v-3.7
			C-1662,3534.3-1661.1,3533.5-1660.1,3533.5C-1660.1,3533.5-1660.1,3533.5-1660.1,3533.5S-1660.1,3533.5-1660.1,3533.5z
			 M-1661.2,3537.2c0,0.6,0.5,1.2,1.2,1.2s1.2-0.5,1.2-1.2s-0.5-1.2-1.2-1.2S-1661.2,3536.6-1661.2,3537.2z"/>
		<circle id="connector2pad_8_" fill="none" stroke="#000000" stroke-width="0.72" cx="-1645.7" cy="3558.8" r="1.5"/>
		<path d="M-1645.7,3555.1c1,0,1.9,0.8,1.9,1.9v3.7c0,1-0.8,1.9-1.9,1.9l0,0c-1,0-1.9-0.8-1.9-1.9v-3.7
			C-1647.6,3555.9-1646.7,3555.1-1645.7,3555.1L-1645.7,3555.1z M-1646.8,3558.8c0,0.6,0.5,1.2,1.2,1.2s1.2-0.5,1.2-1.2
			s-0.5-1.2-1.2-1.2S-1646.8,3558.2-1646.8,3558.8z"/>
		<circle id="connector3pad_3_" fill="none" stroke="#000000" stroke-width="0.72" cx="-1638.5" cy="3558.8" r="1.5"/>
		<path d="M-1638.5,3555.1c1,0,1.9,0.8,1.9,1.9v3.7c0,1-0.8,1.9-1.9,1.9l0,0c-1,0-1.9-0.8-1.9-1.9v-3.7
			C-1640.4,3555.9-1639.5,3555.1-1638.5,3555.1L-1638.5,3555.1z M-1639.6,3558.8c0,0.6,0.5,1.2,1.2,1.2s1.2-0.5,1.2-1.2
			s-0.5-1.2-1.2-1.2S-1639.6,3558.2-1639.6,3558.8z"/>
		<circle id="connector5pad_3_" fill="none" stroke="#000000" stroke-width="0.72" cx="-1645.7" cy="3537.2" r="1.5"/>
		<path d="M-1645.7,3533.5c1,0,1.9,0.8,1.9,1.9v3.7c0,1-0.8,1.9-1.9,1.9l0,0c-1,0-1.9-0.8-1.9-1.9v-3.7
			C-1647.6,3534.3-1646.7,3533.5-1645.7,3533.5C-1645.7,3533.5-1645.7,3533.5-1645.7,3533.5z M-1646.8,3537.2c0,0.6,0.5,1.2,1.2,1.2
			s1.2-0.5,1.2-1.2s-0.5-1.2-1.2-1.2S-1646.8,3536.6-1646.8,3537.2z"/>
		<circle id="connector4pad_3_" fill="none" stroke="#000000" stroke-width="0.72" cx="-1638.5" cy="3537.2" r="1.5"/>
		<path d="M-1638.5,3533.5c1,0,1.9,0.8,1.9,1.9v3.7c0,1-0.8,1.9-1.9,1.9l0,0c-1,0-1.9-0.8-1.9-1.9v-3.7
			C-1640.4,3534.3-1639.5,3533.5-1638.5,3533.5C-1638.5,3533.5-1638.5,3533.5-1638.5,3533.5z M-1639.6,3537.2c0,0.6,0.5,1.2,1.2,1.2
			s1.2-0.5,1.2-1.2s-0.5-1.2-1.2-1.2S-1639.6,3536.6-1639.6,3537.2z"/>
		<g>
			<g transform="translate(30.2253,36.7744)">
				<g transform="matrix(0,-1,1,0,0,0)">
					<g id="copper1_40_">
						<circle id="connector0pin_41_" fill="none" stroke="#000000" stroke-width="1.44" cx="-3500.4" cy="-1711.9" r="2"/>
						<circle id="connector1pin_14_" fill="none" stroke="#000000" stroke-width="1.44" cx="-3471.6" cy="-1711.9" r="2"/>
					</g>
				</g>
			</g>
		</g>
		<g>
			<g transform="translate(87.8253,36.7744)">
				<g transform="matrix(0,-1,1,0,0,0)">
					<g id="copper1_39_">
						<circle id="connector0pin_40_" fill="none" stroke="#000000" stroke-width="1.44" cx="-3500.4" cy="-1711.9" r="2"/>
						<circle id="connector1pin_13_" fill="none" stroke="#000000" stroke-width="1.44" cx="-3471.6" cy="-1711.9" r="2"/>
					</g>
				</g>
			</g>
		</g>
		<g>
			<g transform="translate(79.2213,7.97438)">
				<g transform="matrix(-1,0,0,-1,0,0)">
					<g id="copper1_38_">
						<circle id="connector0pin_39_" fill="none" stroke="#000000" stroke-width="1.44" cx="1717.7" cy="-3500.4" r="2"/>
						<circle id="connector1pin_12_" fill="none" stroke="#000000" stroke-width="1.44" cx="1739.3" cy="-3500.4" r="2"/>
					</g>
				</g>
			</g>
		</g>
		<g>
			<g transform="translate(75.2219,79.575)">
				<g transform="matrix(-1,0,0,-1,0,0)">
					<g id="copper1_37_">
						<circle id="connector1pad_25_" fill="none" stroke="#000000" stroke-width="1.3479" cx="1720.9" cy="-3493.6" r="1.7"/>
						<circle id="connector0pad_25_" fill="none" stroke="#000000" stroke-width="1.3479" cx="1728.1" cy="-3493.6" r="1.7"/>
						<path d="M1725.8-3496h4.7v4.7h-4.7V-3496z M1727.1-3493.6c0,0.5,0.4,1,1,1s1-0.4,1-1s-0.4-1-1-1S1727.1-3494.2,1727.1-3493.6z
							"/>
						<g id="copper0_30_">
							<circle id="connector1pad_24_" fill="none" stroke="#000000" stroke-width="1.3479" cx="1720.9" cy="-3493.6" r="1.7"/>
							<circle id="connector0pad_24_" fill="none" stroke="#000000" stroke-width="1.3479" cx="1728.1" cy="-3493.6" r="1.7"/>
							<path d="M1725.8-3496h4.7v4.7h-4.7V-3496z M1727.1-3493.6c0,0.5,0.4,1,1,1s1-0.4,1-1s-0.4-1-1-1S1727.1-3494.2,1727.1-3493.6
								z"/>
						</g>
					</g>
				</g>
			</g>
		</g>
		<circle id="connector1pad_23_" fill="none" stroke="#000000" stroke-width="1.3479" cx="-1609.7" cy="3537.2" r="1.7"/>
		<circle id="connector0pad_23_" fill="none" stroke="#000000" stroke-width="1.3479" cx="-1616.9" cy="3537.2" r="1.7"/>
		<path d="M-1614.5,3539.6h-4.7v-4.7h4.7V3539.6z M-1615.9,3537.2c0-0.5-0.4-1-1-1c-0.5,0-1,0.4-1,1c0,0.5,0.4,1,1,1
			C-1616.3,3538.2-1615.9,3537.8-1615.9,3537.2z"/>
		<circle id="connector0pad_22_" fill="none" stroke="#000000" stroke-width="1.3479" cx="-1616.9" cy="3537.2" r="1.7"/>
		<path d="M-1614.5,3539.6h-4.7v-4.7h4.7V3539.6z M-1615.9,3537.2c0-0.5-0.4-1-1-1c-0.5,0-1,0.4-1,1c0,0.5,0.4,1,1,1
			C-1616.3,3538.2-1615.9,3537.8-1615.9,3537.2z"/>
		<g>
			<g transform="translate(41.3853,58.6263)">
				<g transform="matrix(0,1,-1,0,0,0)">
					<g id="copper1_31_">
						<circle id="connector0pad_21_" fill="none" stroke="#000000" stroke-width="1.512" cx="3507.4" cy="1723.1" r="1.9"/>
						<circle id="connector1pad_21_" fill="none" stroke="#000000" stroke-width="1.512" cx="3511" cy="1717.7" r="1.9"/>
						<circle id="connector2pad_7_" fill="none" stroke="#000000" stroke-width="1.512" cx="3514.6" cy="1723.1" r="1.9"/>
						<g id="copper0_27_">
							<circle id="connector0pad_20_" fill="none" stroke="#000000" stroke-width="1.512" cx="3507.4" cy="1723.1" r="1.9"/>
							<circle id="connector1pad_20_" fill="none" stroke="#000000" stroke-width="1.512" cx="3511" cy="1717.7" r="1.9"/>
							<circle id="connector2pad_6_" fill="none" stroke="#000000" stroke-width="1.512" cx="3514.6" cy="1723.1" r="1.9"/>
						</g>
					</g>
				</g>
			</g>
		</g>
		<g>
			<g transform="translate(42.1089,52.0208)">
				<g transform="matrix(-1,0,0,-1,0,0)">
					<g id="copper1_30_">
						<circle id="connector1pad_19_" fill="none" stroke="#000000" stroke-width="1.1338" cx="1723.8" cy="-3492.5" r="1.7"/>
						<rect x="1722.1" y="-3494.2" fill="none" stroke="#000000" stroke-width="1.1338" width="3.4" height="3.4"/>
						<circle id="connector0pad_19_" fill="none" stroke="#000000" stroke-width="1.1338" cx="1723.8" cy="-3499.6" r="1.7"/>
					</g>
				</g>
			</g>
		</g>
		<g>
			<g transform="translate(21.2219,42.5738)">
				<g transform="matrix(0,1,-1,0,0,0)">
					<g id="copper1_28_">
						<circle id="connector1pad_18_" fill="none" stroke="#000000" stroke-width="1.3479" cx="3509" cy="1724.5" r="1.7"/>
						<circle id="connector0pad_18_" fill="none" stroke="#000000" stroke-width="1.3479" cx="3516.2" cy="1724.5" r="1.7"/>
						<path d="M3513.9,1722.2h4.7v4.7h-4.7V1722.2z M3515.3,1724.5c0,0.5,0.4,1,1,1c0.5,0,1-0.4,1-1c0-0.5-0.4-1-1-1
							C3515.7,1723.5,3515.3,1724,3515.3,1724.5z"/>
						<g id="copper0_26_">
							<circle id="connector1pad_17_" fill="none" stroke="#000000" stroke-width="1.3479" cx="3509" cy="1724.5" r="1.7"/>
							<circle id="connector0pad_17_" fill="none" stroke="#000000" stroke-width="1.3479" cx="3516.2" cy="1724.5" r="1.7"/>
							<path d="M3513.9,1722.2h4.7v4.7h-4.7V1722.2z M3515.3,1724.5c0,0.5,0.4,1,1,1c0.5,0,1-0.4,1-1c0-0.5-0.4-1-1-1
								C3515.7,1723.5,3515.3,1724,3515.3,1724.5z"/>
						</g>
					</g>
				</g>
			</g>
		</g>
		<g>
			<g transform="translate(15.904,45.4571)">
				<g id="copper1_27_">
					<circle id="connector0pin_32_" fill="none" stroke="#000000" stroke-width="0.8504" cx="-1712" cy="3506.2" r="1.6"/>
				</g>
			</g>
		</g>
		<g>
			<g transform="translate(15.904,45.4571)">
				<g id="copper1_1_">
					<circle id="connector0pin_1_" fill="none" stroke="#000000" stroke-width="0.8504" cx="-1704.8" cy="3506.2" r="1.6"/>
				</g>
			</g>
		</g>
		<g>
			<g transform="translate(15.904,45.4571)">
				<g id="copper1_5_">
					<circle id="connector0pin_5_" fill="none" stroke="#000000" stroke-width="0.8504" cx="-1712" cy="3463" r="1.6"/>
				</g>
			</g>
		</g>
		<g>
			<g transform="translate(15.904,45.4571)">
				<g id="copper1_3_">
					<circle id="connector0pin_3_" fill="none" stroke="#000000" stroke-width="0.8504" cx="-1712" cy="3520.6" r="1.6"/>
				</g>
			</g>
		</g>
		<g>
			<g transform="translate(15.904,45.4571)">
				<g id="copper1_2_">
					<circle id="connector0pin_2_" fill="none" stroke="#000000" stroke-width="0.8504" cx="-1704.8" cy="3520.6" r="1.6"/>
				</g>
			</g>
		</g>
		<g>
			
				<line fill="none" stroke="#000000" stroke-width="1.728" stroke-linecap="round" x1="-1646.3" y1="3539.1" x2="-1652.2" y2="3556.8"/>
		</g>
		<g>
			
				<line fill="none" stroke="#000000" stroke-width="1.728" stroke-linecap="round" x1="-1652.1" y1="3571.6" x2="-1646.6" y2="3560.7"/>
		</g>
		<g>
			
				<line fill="none" stroke="#000000" stroke-width="1.728" stroke-linecap="round" x1="-1626.2" y1="3573.2" x2="-1643.9" y2="3573.2"/>
		</g>
		<g>
			
				<line fill="none" stroke="#000000" stroke-width="1.728" stroke-linecap="round" x1="-1660.1" y1="3535.3" x2="-1660.1" y2="3510.5"/>
		</g>
		<g>
			
				<line fill="none" stroke="#000000" stroke-width="1.728" stroke-linecap="round" x1="-1652.9" y1="3522.8" x2="-1638.5" y2="3522.8"/>
		</g>
		<g>
			
				<line fill="none" stroke="#000000" stroke-width="1.728" stroke-linecap="round" x1="-1638.5" y1="3522.8" x2="-1638.5" y2="3510.5"/>
		</g>
		<g>
			
				<line fill="none" stroke="#000000" stroke-width="1.728" stroke-linecap="round" x1="-1652.9" y1="3535.3" x2="-1652.9" y2="3522.8"/>
		</g>
		<g>
			
				<line fill="none" stroke="#000000" stroke-width="1.728" stroke-linecap="round" x1="-1674.5" y1="3580.4" x2="-1645.7" y2="3580.4"/>
		</g>
		<g>
			
				<line fill="none" stroke="#000000" stroke-width="1.728" stroke-linecap="round" x1="-1645.7" y1="3580.4" x2="-1645.7" y2="3575"/>
		</g>
		<g>
			
				<line fill="none" stroke="#000000" stroke-width="1.728" stroke-linecap="round" x1="-1676" y1="3571.5" x2="-1674.5" y2="3580.4"/>
		</g>
		<g>
			
				<line fill="none" stroke="#000000" stroke-width="1.728" stroke-linecap="round" x1="-1681.7" y1="3579.1" x2="-1681.7" y2="3575.2"/>
		</g>
		<g>
			
				<line fill="none" stroke="#000000" stroke-width="1.728" stroke-linecap="round" x1="-1681.7" y1="3539.3" x2="-1681.7" y2="3542.6"/>
		</g>
		<g>
			
				<line fill="none" stroke="#000000" stroke-width="1.728" stroke-linecap="round" x1="-1683.6" y1="3566" x2="-1687.5" y2="3566"/>
		</g>
		<g>
			
				<line fill="none" stroke="#000000" stroke-width="1.728" stroke-linecap="round" x1="-1683.6" y1="3551.6" x2="-1687.5" y2="3551.6"/>
		</g>
		<g>
			
				<line fill="none" stroke="#000000" stroke-width="1.728" stroke-linecap="round" x1="-1701.5" y1="3551.6" x2="-1697.4" y2="3551.6"/>
		</g>
		<g>
			
				<line fill="none" stroke="#000000" stroke-width="1.728" stroke-linecap="round" x1="-1703.3" y1="3560.6" x2="-1703.3" y2="3566"/>
		</g>
		<g>
			
				<line fill="none" stroke="#000000" stroke-width="1.728" stroke-linecap="round" x1="-1703.3" y1="3566" x2="-1697.4" y2="3566"/>
		</g>
		<g>
			
				<line fill="none" stroke="#000000" stroke-width="1.728" stroke-linecap="round" x1="-1662.1" y1="3508.4" x2="-1679.6" y2="3508.4"/>
		</g>
		<g>
			
				<line fill="none" stroke="#000000" stroke-width="1.728" stroke-linecap="round" x1="-1694.7" y1="3508.4" x2="-1683.7" y2="3508.4"/>
		</g>
		<g>
			
				<line fill="none" stroke="#000000" stroke-width="1.728" stroke-linecap="round" x1="-1626.1" y1="3508.4" x2="-1636.4" y2="3508.4"/>
		</g>
		<g>
			
				<line fill="none" stroke="#000000" stroke-width="1.728" stroke-linecap="round" x1="-1631.3" y1="3544.4" x2="-1631.3" y2="3530"/>
		</g>
		<g>
			
				<line fill="none" stroke="#000000" stroke-width="1.728" stroke-linecap="round" x1="-1631.3" y1="3530" x2="-1645.7" y2="3530"/>
		</g>
		<g>
			
				<line fill="none" stroke="#000000" stroke-width="1.728" stroke-linecap="round" x1="-1624.1" y1="3539.6" x2="-1624.1" y2="3544.4"/>
		</g>
		<g>
			
				<line fill="none" stroke="#000000" stroke-width="1.728" stroke-linecap="round" x1="-1645.7" y1="3530" x2="-1645.7" y2="3535.3"/>
		</g>
		<g>
			
				<line fill="none" stroke="#000000" stroke-width="1.728" stroke-linecap="round" x1="-1624.1" y1="3544.4" x2="-1631.3" y2="3544.4"/>
		</g>
		<g>
			
				<line fill="none" stroke="#000000" stroke-width="1.728" stroke-linecap="round" x1="-1621.9" y1="3537.2" x2="-1618.8" y2="3537.2"/>
		</g>
		<rect id="square_5_" x="-1626.2" y="3571.1" fill="#FFFFFF" stroke="#000000" stroke-width="1.44" width="4.2" height="4.2"/>
		<circle id="connector0pin_38_" fill="#FFFFFF" stroke="#000000" stroke-width="1.44" cx="-1624.1" cy="3573.2" r="2.1"/>
		<circle id="connector1pin_11_" fill="#FFFFFF" stroke="#000000" stroke-width="1.44" cx="-1624.1" cy="3565" r="2"/>
		<rect id="square_4_" x="-1626.2" y="3571.1" fill="#FFFFFF" stroke="#000000" stroke-width="1.44" width="4.2" height="4.2"/>
		<circle id="connector0pin_37_" fill="#FFFFFF" stroke="#000000" stroke-width="1.44" cx="-1624.1" cy="3573.2" r="1.8"/>
		<g>
			<path d="M-1660.1,3555.1c1,0,1.9,0.8,1.9,1.9v3.7c0,1-0.8,1.9-1.9,1.9l0,0c-1,0-1.9-0.8-1.9-1.9v-3.7
				C-1662,3555.9-1661.1,3555.1-1660.1,3555.1C-1660.1,3555.1-1660.1,3555.1-1660.1,3555.1z M-1661.2,3558.8c0,0.6,0.5,1.2,1.2,1.2
				s1.2-0.5,1.2-1.2l0,0c0-0.6-0.5-1.2-1.2-1.2S-1661.2,3558.2-1661.2,3558.8z"/>
			<circle fill="#FFFFFF" cx="-1660.1" cy="3558.8" r="1.2"/>
		</g>
		
			<circle id="connector1pad_22_" fill="#FFFFFF" stroke="#000000" stroke-width="1.3493" stroke-miterlimit="10" cx="-1609.7" cy="3537.2" r="1.7"/>
		<circle id="connector1pin_10_" fill="#FFFFFF" stroke="#000000" stroke-width="1.44" cx="-1704.4" cy="3508.4" r="1.8"/>
		<path d="M-1685.4,3569"/>
		<polygon points="-1677.6,3582.2 -1686.3,3582.2 -1686.3,3576.9 -1678.5,3576.9 		"/>
	</g>
</g>
<g id="trou">
	<circle cx="-1704.4" cy="3508.4" r="1.3"/>
	<circle cx="-1696.1" cy="3508.4" r="1.3"/>
	<circle cx="-1681.7" cy="3508.4" r="1.3"/>
	<circle cx="-1660.1" cy="3508.4" r="1.3"/>
	<circle cx="-1638.5" cy="3508.4" r="1.3"/>
	<circle cx="-1624.1" cy="3508.4" r="1.3"/>
	<circle cx="-1624.1" cy="3537.2" r="1.3"/>
	<circle cx="-1638.5" cy="3537.2" r="1.3"/>
	<circle cx="-1645.7" cy="3537.2" r="1.3"/>
	<circle cx="-1652.9" cy="3537.2" r="1.3"/>
	<circle cx="-1660.1" cy="3537.2" r="1.3"/>
	<circle cx="-1681.7" cy="3537.2" r="1.3"/>
	<circle cx="-1681.7" cy="3544.5" r="1.3"/>
	<circle cx="-1681.7" cy="3551.6" r="1.3"/>
	<circle cx="-1688.9" cy="3551.6" r="1.3"/>
	<circle cx="-1696.1" cy="3551.6" r="1.3"/>
	<circle cx="-1703.3" cy="3551.6" r="1.3"/>
	<circle cx="-1703.3" cy="3558.8" r="1.3"/>
	<circle cx="-1696.1" cy="3566" r="1.3"/>
	<circle cx="-1688.9" cy="3566" r="1.3"/>
	<circle cx="-1681.7" cy="3566" r="1.3"/>
	<circle cx="-1681.7" cy="3573.2" r="1.3"/>
	<circle cx="-1676.3" cy="3569.6" r="1.3"/>
	<circle cx="-1638.5" cy="3558.8" r="1.3"/>
	<circle cx="-1645.7" cy="3558.8" r="1.3"/>
	<circle cx="-1652.9" cy="3558.8" r="1.3"/>
	<circle cx="-1645.7" cy="3573.2" r="1.3"/>
	<circle cx="-1624.1" cy="3573.2" r="1.3"/>
	<circle cx="-1624.1" cy="3565" r="1.3"/>
	<circle cx="-1652.9" cy="3573.2" r="1.3"/>
	<circle cx="-1660.1" cy="3558.8" r="1.3"/>
	<circle cx="-1616.9" cy="3537.2" r="1.3"/>
	<circle cx="-1609.7" cy="3537.2" r="1.3"/>
</g>
</svg>
