<?xml version="1.0" encoding="utf-8"?>
<!-- Generator: Adobe Illustrator 18.1.1, SVG Export Plug-In . SVG Version: 6.00 Build 0)  -->
<svg version="1.1"
	 id="svg2" xmlns:inkscape="http://www.inkscape.org/namespaces/inkscape" xmlns:sodipodi="http://sodipodi.sourceforge.net/DTD/sodipodi-0.dtd" xmlns:cc="http://creativecommons.org/ns#" xmlns:svg="http://www.w3.org/2000/svg" xmlns:dc="http://purl.org/dc/elements/1.1/" xmlns:rdf="http://www.w3.org/1999/02/22-rdf-syntax-ns#" inkscape:version="0.91 r13725" sodipodi:docname="drawing.svg"
	 xmlns="http://www.w3.org/2000/svg" xmlns:xlink="http://www.w3.org/1999/xlink" x="0px" y="0px"
	 viewBox="-1671.4 2835 992.1 1417.3" enable-background="new -1671.4 2835 992.1 1417.3" xml:space="preserve">
<sodipodi:namedview  inkscape:cx="445.48567" inkscape:cy="1033.0631" bordercolor="#666666" borderopacity="1.0" inkscape:zoom="1.979899" pagecolor="#ffffff" showgrid="false" id="base" inkscape:window-x="0" inkscape:window-y="0" inkscape:window-height="719" inkscape:current-layer="layer1" inkscape:document-units="px" inkscape:window-maximized="1" inkscape:pageshadow="2" inkscape:pageopacity="0.0" inkscape:window-width="1366">
	</sodipodi:namedview>
<polygon fill="none" stroke="#000000" points="-1045.9,3302.3 -1045.9,3282.3 -1079.8,3282.3 -1079.8,3273.8 -1108.4,3273.8 
	-1108.4,3282.3 -1142.1,3282.3 -1142.1,3273.8 -1170.7,3273.8 -1170.7,3282.3 -1204.5,3282.3 -1204.5,3273.8 -1233.1,3273.8 
	-1233.1,3282.3 -1266.9,3282.3 -1266.9,3273.8 -1295.5,3273.8 -1295.5,3282.3 -1329.4,3282.3 -1329.4,3302.3 -1320.8,3302.3 
	-1320.8,3330.4 -1329.4,3330.4 -1329.4,3359 -1320.8,3359 -1320.8,3387.1 -1329.4,3387.1 -1329.4,3407 -1045.9,3407 -1045.9,3387.1 
	-1054.4,3387.1 -1054.4,3359 -1045.9,3359 -1045.9,3330.4 -1054.4,3330.4 -1054.4,3302.3 "/>
<polygon fill="none" stroke="#000000" points="-1332.2,3050 -1332.2,3021.4 -1340.7,3021.4 -1340.7,2996 -1360.4,2996 
	-1360.4,2987.5 -1389,2987.5 -1389,2996 -1417.1,2996 -1417.1,2987.5 -1445.7,2987.5 -1445.7,2996 -1465.4,2996 -1465.4,3262.5 
	-1445.7,3262.5 -1445.7,3271 -1417.1,3271 -1417.1,3262.5 -1389,3262.5 -1389,3271 -1360.4,3271 -1360.4,3262.5 -1340.7,3262.5 
	-1340.7,3237.1 -1332.2,3237.1 -1332.2,3208.5 -1340.7,3208.5 -1340.7,3174.7 -1332.2,3174.7 -1332.2,3146.1 -1340.7,3146.1 
	-1340.7,3112.4 -1332.2,3112.4 -1332.2,3083.8 -1340.7,3083.8 -1340.7,3050 "/>
<path id="path3363" inkscape:label="part" fill="none" stroke="#000000" d="M-1329.4,2987.5h34.1v8.5h28.1v-8.5h34.3v8.5h28.1v-8.5
	h34.3v8.5h28.1v-8.5h34.3v8.5h28.1v-8.5h34.1v34.1h-8.5v28.1h8.5v34.3h-8.5v28.1h8.5v34.3h-8.5v28.1h8.5v34.3h-8.5v28.1h8.5v34.1
	h-34.1v-8.5h-28.1v8.5h-34.3v-8.5h-28.1v8.5h-34.3v-8.5h-28.1v8.5h-34.3v-8.5h-28.1v8.5h-34.1v-34.1h8.5v-28.1h-8.5v-34.3h8.5v-28.1
	h-8.5v-34.3h8.5V3084h-8.5v-34.3h8.5v-28.1h-8.5V2987.5z"/>
<polygon fill="none" stroke="#000000" points="-1609.5,2871.2 -1618,2871.2 -1618,2899.8 -1609.5,2899.8 -1609.5,2927.9 
	-1618,2927.9 -1618,2956.5 -1609.5,2956.5 -1609.5,2976.2 -1584.1,2976.2 -1584.1,2984.7 -1555.5,2984.7 -1555.5,2976.2 
	-1521.7,2976.2 -1521.7,2984.7 -1493.1,2984.7 -1493.1,2976.2 -1459.4,2976.2 -1459.4,2984.7 -1430.8,2984.7 -1430.8,2976.2 
	-1397,2976.2 -1397,2984.7 -1368.4,2984.7 -1368.4,2976.2 -1343,2976.2 -1343,2956.5 -1334.5,2956.5 -1334.5,2927.9 -1343,2927.9 
	-1343,2899.8 -1334.5,2899.8 -1334.5,2871.2 -1343,2871.2 -1343,2851.4 -1609.5,2851.4 "/>
<polygon fill="none" stroke="#000000" points="-1045.9,2871.4 -1045.9,2851.4 -1329.4,2851.4 -1329.4,2871.4 -1320.8,2871.4 
	-1320.8,2899.5 -1329.4,2899.5 -1329.4,2928.1 -1320.8,2928.1 -1320.8,2956.2 -1329.4,2956.2 -1329.4,2976.2 -1295.5,2976.2 
	-1295.5,2984.7 -1266.9,2984.7 -1266.9,2976.2 -1233.1,2976.2 -1233.1,2984.7 -1204.5,2984.7 -1204.5,2976.2 -1170.7,2976.2 
	-1170.7,2984.7 -1142.1,2984.7 -1142.1,2976.2 -1108.4,2976.2 -1108.4,2984.7 -1079.8,2984.7 -1079.8,2976.2 -1045.9,2976.2 
	-1045.9,2956.2 -1054.4,2956.2 -1054.4,2928.1 -1045.9,2928.1 -1045.9,2899.5 -1054.4,2899.5 -1054.4,2871.4 "/>
<g id="g3389" inkscape:label="newlayer" inkscape:groupmode="layer">
</g>
<polygon fill="none" stroke="#000000" points="-1332.2,3302.3 -1332.2,3282.3 -1366.1,3282.3 -1366.1,3273.8 -1394.7,3273.8 
	-1394.7,3282.3 -1428.4,3282.3 -1428.4,3273.8 -1457,3273.8 -1457,3282.3 -1490.8,3282.3 -1490.8,3273.8 -1519.4,3273.8 
	-1519.4,3282.3 -1553.2,3282.3 -1553.2,3273.8 -1581.8,3273.8 -1581.8,3282.3 -1615.6,3282.3 -1615.6,3302.3 -1607.1,3302.3 
	-1607.1,3330.4 -1615.6,3330.4 -1615.6,3359 -1607.1,3359 -1607.1,3387.1 -1615.6,3387.1 -1615.6,3407 -1332.2,3407 -1332.2,3387.1 
	-1340.7,3387.1 -1340.7,3359 -1332.2,3359 -1332.2,3330.4 -1340.7,3330.4 -1340.7,3302.3 "/>
<polygon fill="none" stroke="#000000" points="-1482.4,3050 -1482.4,3021.4 -1490.9,3021.4 -1490.9,2996 -1510.6,2996 
	-1510.6,2987.5 -1539.2,2987.5 -1539.2,2996 -1567.3,2996 -1567.3,2987.5 -1595.9,2987.5 -1595.9,2996 -1615.6,2996 -1615.6,3262.5 
	-1595.9,3262.5 -1595.9,3271 -1567.3,3271 -1567.3,3262.5 -1539.2,3262.5 -1539.2,3271 -1510.6,3271 -1510.6,3262.5 -1490.9,3262.5 
	-1490.9,3237.1 -1482.4,3237.1 -1482.4,3208.5 -1490.9,3208.5 -1490.9,3174.7 -1482.4,3174.7 -1482.4,3146.1 -1490.9,3146.1 
	-1490.9,3112.4 -1482.4,3112.4 -1482.4,3083.8 -1490.9,3083.8 -1490.9,3050 "/>
<path id="path3363_1_" inkscape:label="part" fill="none" stroke="#000000" d="M-1033.2,2987.5h34.1v8.5h28.1v-8.5h34.3v8.5h28.1
	v-8.5h34.3v8.5h28.1v-8.5h34.3v8.5h28.1v-8.5h34.1v34.1h-8.5v28.1h8.5v34.3h-8.5v28.1h8.5v34.3h-8.5v28.1h8.5v34.3h-8.5v28.1h8.5
	v34.1h-34.1v-8.5H-812v8.5h-34.3v-8.5h-28.1v8.5h-34.3v-8.5h-28.1v8.5H-971v-8.5h-28.1v8.5h-34.1v-34.1h8.5v-28.1h-8.5v-34.3h8.5
	v-28.1h-8.5v-34.3h8.5V3084h-8.5v-34.3h8.5v-28.1h-8.5V2987.5z"/>
<polygon fill="none" stroke="#000000" points="-1024.7,2871.2 -1033.2,2871.2 -1033.2,2899.8 -1024.7,2899.8 -1024.7,2927.9 
	-1033.2,2927.9 -1033.2,2956.5 -1024.7,2956.5 -1024.7,2976.2 -999.3,2976.2 -999.3,2984.7 -970.7,2984.7 -970.7,2976.2 
	-937,2976.2 -937,2984.7 -908.4,2984.7 -908.4,2976.2 -874.6,2976.2 -874.6,2984.7 -846,2984.7 -846,2976.2 -812.2,2976.2 
	-812.2,2984.7 -783.6,2984.7 -783.6,2976.2 -758.3,2976.2 -758.3,2956.5 -749.8,2956.5 -749.8,2927.9 -758.3,2927.9 -758.3,2899.8 
	-749.8,2899.8 -749.8,2871.2 -758.3,2871.2 -758.3,2851.4 -1024.7,2851.4 "/>
<polygon fill="none" stroke="#000000" points="-749.8,3303.4 -749.8,3283.4 -1033.2,3283.4 -1033.2,3303.4 -1024.7,3303.4 
	-1024.7,3331.5 -1033.2,3331.5 -1033.2,3360.1 -1024.7,3360.1 -1024.7,3388.2 -1033.2,3388.2 -1033.2,3408.2 -999.3,3408.2 
	-999.3,3416.7 -970.7,3416.7 -970.7,3408.2 -937,3408.2 -937,3416.7 -908.4,3416.7 -908.4,3408.2 -874.6,3408.2 -874.6,3416.7 
	-846,3416.7 -846,3408.2 -812.2,3408.2 -812.2,3416.7 -783.6,3416.7 -783.6,3408.2 -749.8,3408.2 -749.8,3388.2 -758.3,3388.2 
	-758.3,3360.1 -749.8,3360.1 -749.8,3331.5 -758.3,3331.5 -758.3,3303.4 "/>
<g id="g3389_1_" inkscape:label="newlayer" inkscape:groupmode="layer">
</g>
</svg>
