<?xml version="1.0" encoding="utf-8"?>
<!-- Generator: Adobe Illustrator 18.1.1, SVG Export Plug-In . SVG Version: 6.00 Build 0)  -->
<svg version="1.1"
	 id="svg3369" xmlns:inkscape="http://www.inkscape.org/namespaces/inkscape" xmlns:cc="http://creativecommons.org/ns#" xmlns:dc="http://purl.org/dc/elements/1.1/" xmlns:sodipodi="http://sodipodi.sourceforge.net/DTD/sodipodi-0.dtd" xmlns:rdf="http://www.w3.org/1999/02/22-rdf-syntax-ns#" xmlns:svg="http://www.w3.org/2000/svg" sodipodi:docname="twoPlantBox.svg" inkscape:version="0.91 r13725"
	 xmlns="http://www.w3.org/2000/svg" xmlns:xlink="http://www.w3.org/1999/xlink" x="0px" y="0px"
	 viewBox="-1473 3122.7 990.7 572.9" enable-background="new -1473 3122.7 990.7 572.9" xml:space="preserve">
<sodipodi:namedview  pagecolor="#ffffff" bordercolor="#666666" id="base" inkscape:cy="664.16131" borderopacity="1.0" inkscape:cx="768.41215" showgrid="false" inkscape:zoom="0.7" inkscape:window-height="719" inkscape:pageshadow="2" inkscape:window-width="1366" inkscape:window-y="0" inkscape:window-maximized="1" inkscape:pageopacity="0.0" inkscape:current-layer="layer1" inkscape:window-x="0" inkscape:document-units="px">
	</sodipodi:namedview>
<path id="path3604_2_" inkscape:label="part" fill="none" stroke="#000000" d="M-1336.9,3678.3v-20h8.5v-28.1h-8.5v-28.6h8.5v-28.1
	h-8.5v-20h33.9v-8.5h28.6v8.5h33.8v-8.5h28.6v8.5h33.8v-8.5h28.6v8.5h33.8v-8.5h28.6v8.5h33.9v20h-8.5v28.1h8.5v28.6h-8.5v28.1h8.5
	v20H-1336.9z"/>
<path id="path3610_2_" inkscape:label="part" fill="none" stroke="#000000" d="M-1473,3131.2h19.7v-8.5h28.6v8.5h28.1v-8.5h28.6v8.5
	h19.7v25.4h8.5v28.6h-8.5v33.8h8.5v28.6h-8.5v33.8h8.5v28.6h-8.5v33.8h8.5v28.6h-8.5v25.4h-19.7v8.5h-28.6v-8.5h-28.1v8.5h-28.6
	v-8.5h-19.7V3131.2z"/>
<g>
	<path id="path3620_7_" inkscape:label="part" fill="none" stroke="#000000" d="M-1053.5,3480h-8.5v28.1h8.5V3480z"/>
	<path id="path3620_4_" inkscape:label="part" fill="none" stroke="#000000" d="M-1053.5,3417.7h-8.5v28.1h8.5V3417.7z"/>
	<path id="path3620_3_" inkscape:label="part" fill="none" stroke="#000000" d="M-1053.5,3355.3h-8.5v28.1h8.5V3355.3z"/>
	<path id="path3620_2_" inkscape:label="part" fill="none" stroke="#000000" d="M-1053.5,3292.9h-8.5v28.1h8.5V3292.9z"/>
</g>
<g>
	<path id="path3620_9_" inkscape:label="part" fill="none" stroke="#000000" d="M-770,3321h8.5v-28.1h-8.5V3321z"/>
	<path id="path3620_8_" inkscape:label="part" fill="none" stroke="#000000" d="M-770,3383.4h8.5v-28.1h-8.5V3383.4z"/>
	<path id="path3620_5_" inkscape:label="part" fill="none" stroke="#000000" d="M-770,3445.7h8.5v-28.1h-8.5V3445.7z"/>
	<path id="path3620_1_" inkscape:label="part" fill="none" stroke="#000000" d="M-770,3508.1h8.5V3480h-8.5V3508.1z"/>
</g>
<path id="path3628_2_" inkscape:label="part" fill="none" stroke="#000000" d="M-1473,3420.6h19.7v-8.5h28.6v8.5h28.1v-8.5h28.6v8.5
	h19.7v25.4h8.5v28.6h-8.5v33.8h8.5v28.6h-8.5v33.8h8.5v28.6h-8.5v33.8h8.5v28.6h-8.5v25.4h-19.7v8.5h-28.6v-8.5h-28.1v8.5h-28.6
	v-8.5h-19.7V3420.6z"/>
<path id="path3610_1_" inkscape:label="part" fill="none" stroke="#000000" d="M-776.5,3122.7v19.7h8.5v28.6h-8.5v28.1h8.5v28.6
	h-8.5v19.7h-25.4v8.5h-28.6v-8.5h-33.8v8.5h-28.6v-8.5h-33.8v8.5h-28.6v-8.5H-989v8.5h-28.6v-8.5h-25.4v-19.7h-8.5v-28.6h8.5V3171
	h-8.5v-28.6h8.5v-19.7H-776.5z"/>
<path id="path3628_1_" inkscape:label="part" fill="none" stroke="#000000" d="M-1043,3678.3v-19.7h-8.5V3630h8.5v-28.1h-8.5v-28.6
	h8.5v-19.7h25.4v-8.5h28.6v8.5h33.8v-8.5h28.6v8.5h33.8v-8.5h28.6v8.5h33.8v-8.5h28.6v8.5h25.4v19.7h8.5v28.6h-8.5v28.1h8.5v28.6
	h-8.5v19.7H-1043z"/>
<path id="path3644_2_" inkscape:label="part" fill="none" stroke="#000000" d="M-1053.5,3122.7v20h-8.5v28.1h8.5v28.6h-8.5v28.1h8.5
	v20h-33.9v8.5h-28.6v-8.5h-33.8v8.5h-28.6v-8.5h-33.8v8.5h-28.6v-8.5h-33.8v8.5h-28.6v-8.5h-33.9v-20h8.5v-28.1h-8.5v-28.6h8.5
	v-28.1h-8.5v-20H-1053.5z"/>
<path id="path3604_1_" inkscape:label="part" fill="none" stroke="#000000" d="M-765.8,3678.3v-20h8.5v-28.1h-8.5v-28.6h8.5v-28.1
	h-8.5v-20h33.9v-8.5h28.6v8.5h33.8v-8.5h28.6v8.5h33.8v-8.5h28.6v8.5h33.8v-8.5h28.6v8.5h33.9v20h-8.5v28.1h8.5v28.6h-8.5v28.1h8.5
	v20H-765.8z"/>
<path id="path3644_1_" inkscape:label="part" fill="none" stroke="#000000" d="M-482.3,3122.7v20h-8.5v28.1h8.5v28.6h-8.5v28.1h8.5
	v20h-33.9v8.5h-28.6v-8.5h-33.8v8.5h-28.6v-8.5h-33.8v8.5h-28.6v-8.5h-33.8v8.5h-28.6v-8.5h-33.9v-20h8.5v-28.1h-8.5v-28.6h8.5
	v-28.1h-8.5v-20H-482.3z"/>
<g id="g3430" inkscape:groupmode="layer" inkscape:label="newlayer">
</g>
<g id="g3538" inkscape:groupmode="layer" inkscape:label="newlayer">
</g>
<g id="g3648" inkscape:groupmode="layer" inkscape:label="newlayer">
</g>
<polygon fill="none" stroke="#000000" points="-770,3542.2 -1053.5,3542.2 -1087.6,3542.2 -1087.6,3533.7 -1115.7,3533.7 
	-1115.7,3542.2 -1150,3542.2 -1150,3533.7 -1178.1,3533.7 -1178.1,3542.2 -1212.3,3542.2 -1212.3,3533.7 -1240.4,3533.7 
	-1240.4,3542.2 -1274.7,3542.2 -1274.7,3533.7 -1302.8,3533.7 -1302.8,3542.2 -1336.9,3542.2 -1336.9,3508.1 -1328.4,3508.1 
	-1328.4,3480 -1336.9,3480 -1336.9,3445.7 -1328.4,3445.7 -1328.4,3417.7 -1336.9,3417.7 -1336.9,3383.4 -1328.4,3383.4 
	-1328.4,3355.3 -1336.9,3355.3 -1336.9,3321 -1328.4,3321 -1328.4,3292.9 -1336.9,3292.9 -1336.9,3258.8 -1302.8,3258.8 
	-1302.8,3267.3 -1274.7,3267.3 -1274.7,3258.8 -1240.4,3258.8 -1240.4,3267.3 -1212.3,3267.3 -1212.3,3258.8 -1178.1,3258.8 
	-1178.1,3267.3 -1150,3267.3 -1150,3258.8 -1115.7,3258.8 -1115.7,3267.3 -1087.6,3267.3 -1087.6,3258.8 -1053.5,3258.8 
	-770,3258.8 -735.9,3258.8 -735.9,3267.3 -707.8,3267.3 -707.8,3258.8 -673.5,3258.8 -673.5,3267.3 -645.4,3267.3 -645.4,3258.8 
	-611.1,3258.8 -611.1,3267.3 -583,3267.3 -583,3258.8 -548.8,3258.8 -548.8,3267.3 -520.7,3267.3 -520.7,3258.8 -486.5,3258.8 
	-486.5,3292.9 -495,3292.9 -495,3321 -486.5,3321 -486.5,3355.3 -495,3355.3 -495,3383.4 -486.5,3383.4 -486.5,3417.7 -495,3417.7 
	-495,3445.7 -486.5,3445.7 -486.5,3480 -495,3480 -495,3508.1 -486.5,3508.1 -486.5,3542.2 -520.7,3542.2 -520.7,3533.7 
	-548.8,3533.7 -548.8,3542.2 -583,3542.2 -583,3533.7 -611.1,3533.7 -611.1,3542.2 -645.4,3542.2 -645.4,3533.7 -673.5,3533.7 
	-673.5,3542.2 -707.8,3542.2 -707.8,3533.7 -735.9,3533.7 -735.9,3542.2 "/>
</svg>
